<svg width="793" height="347" viewBox="0 0 793 347" fill="none" xmlns="http://www.w3.org/2000/svg">
<path fill-rule="evenodd" clip-rule="evenodd" d="M0.5 346.5C0.5 346.5 97.0978 304 119.5 268C234 84 368.5 84 396.5 84C424.5 84 568 84 668.5 268C688.709 305 792.5 346.5 792.5 346.5H439.5C446.5 346.5 491.5 326 491.5 270.5C491.5 215 448.5 181.5 396.5 181.5C354.5 181.5 300 206.5 300 271C300 320 329 337.5 350.5 346.5H0.5ZM244.5 201C210.5 201 208.5 251 244.5 251C280 251 278.5 201 244.5 201ZM545.5 201C511.5 201 509.5 251 545.5 251C581 251 579.5 201 545.5 201Z" fill="black"/>
<path fill-rule="evenodd" clip-rule="evenodd" d="M396.5 346.5C281 346.5 291 193.5 396.5 193.5C509 193.5 504 346.5 396.5 346.5ZM396.5 259.5C381 259.5 380.5 281.5 396.5 281.5C412.5 281.5 412 259.5 396.5 259.5Z" fill="black"/>
<path d="M251 114.5C265.5 106 276.9 100.1 292.5 94.5V50L253 53.5L251 114.5Z" fill="black"/>
<path d="M261.5 45L283 43.5C283 43.5 267 34.5 276.5 27.5C279 25.6579 283 22 283 14C281 3.5 270 1 270 1C270 1 279.129 3.48484 276.5 14C273.871 24.5152 268.5 23 264 27.5C259.5 32 261.5 45 261.5 45Z" fill="black"/>
<path d="M396.5 266C391 266 390.5 275 396.5 275C402.5 275 402 266 396.5 266Z" fill="black"/>
<path d="M524.5 229C525 242 535.5 246 542.5 246V229H524.5Z" fill="black"/>
<path d="M524.5 224C525 211 535.5 205 542.5 205V224H524.5Z" fill="black"/>
<path d="M566.5 224C566 211 555.5 205 548.5 205V224H566.5Z" fill="black"/>
<path d="M566.5 229C566 242 555.5 246 548.5 246V229H566.5Z" fill="black"/>
<path d="M223.5 229C224 242 234.5 246 241.5 246V229H223.5Z" fill="black"/>
<path d="M265.5 229C265 242 254.5 246 247.5 246V229H265.5Z" fill="black"/>
<path d="M265.5 224C265 211 254.5 205 247.5 205V224H265.5Z" fill="black"/>
<path d="M223.5 224C224 211 234.5 205 241.5 205V224H223.5Z" fill="black"/>
<path fill-rule="evenodd" clip-rule="evenodd" d="M0.5 346.5C0.5 346.5 97.0978 304 119.5 268C234 84 368.5 84 396.5 84C424.5 84 568 84 668.5 268C688.709 305 792.5 346.5 792.5 346.5H439.5C446.5 346.5 491.5 326 491.5 270.5C491.5 215 448.5 181.5 396.5 181.5C354.5 181.5 300 206.5 300 271C300 320 329 337.5 350.5 346.5H0.5ZM244.5 201C210.5 201 208.5 251 244.5 251C280 251 278.5 201 244.5 201ZM545.5 201C511.5 201 509.5 251 545.5 251C581 251 579.5 201 545.5 201Z" stroke="black"/>
<path fill-rule="evenodd" clip-rule="evenodd" d="M396.5 346.5C281 346.5 291 193.5 396.5 193.5C509 193.5 504 346.5 396.5 346.5ZM396.5 259.5C381 259.5 380.5 281.5 396.5 281.5C412.5 281.5 412 259.5 396.5 259.5Z" stroke="black"/>
<path d="M251 114.5C265.5 106 276.9 100.1 292.5 94.5V50L253 53.5L251 114.5Z" stroke="black"/>
<path d="M261.5 45L283 43.5C283 43.5 267 34.5 276.5 27.5C279 25.6579 283 22 283 14C281 3.5 270 1 270 1C270 1 279.129 3.48484 276.5 14C273.871 24.5152 268.5 23 264 27.5C259.5 32 261.5 45 261.5 45Z" stroke="black"/>
<path d="M396.5 266C391 266 390.5 275 396.5 275C402.5 275 402 266 396.5 266Z" stroke="black"/>
<path d="M524.5 229C525 242 535.5 246 542.5 246V229H524.5Z" stroke="black"/>
<path d="M524.5 224C525 211 535.5 205 542.5 205V224H524.5Z" stroke="black"/>
<path d="M566.5 224C566 211 555.5 205 548.5 205V224H566.5Z" stroke="black"/>
<path d="M566.5 229C566 242 555.5 246 548.5 246V229H566.5Z" stroke="black"/>
<path d="M223.5 229C224 242 234.5 246 241.5 246V229H223.5Z" stroke="black"/>
<path d="M265.5 229C265 242 254.5 246 247.5 246V229H265.5Z" stroke="black"/>
<path d="M265.5 224C265 211 254.5 205 247.5 205V224H265.5Z" stroke="black"/>
<path d="M223.5 224C224 211 234.5 205 241.5 205V224H223.5Z" stroke="black"/>
</svg>
