<svg width="793" height="336" viewBox="0 0 793 336" fill="none" xmlns="http://www.w3.org/2000/svg">
<path fill-rule="evenodd" clip-rule="evenodd" d="M0.5 335.5C0.5 335.5 97.0978 293 119.5 257C234 73 368.5 73 396.5 73C424.5 73 568 73 668.5 257C688.709 294 792.5 335.5 792.5 335.5H428.5C435.5 335.5 486 317.002 486 259.5C486 201.998 445 175 396.5 175C365.5 175 307 195 307 259.5C307 310 334.5 326.5 356 335.5H0.5ZM244.5 193.5C219 193.5 213.5 235.575 244.5 236C274 236.404 273 193.5 244.5 193.5ZM549 193.5C523.5 193.5 518 235.575 549 236C578.5 236.404 577.5 193.5 549 193.5Z" fill="black"/>
<path d="M225.5 217C226 230 236.5 234 243.5 234V217H225.5Z" fill="black"/>
<path d="M225.5 215C226 202 236.5 196 243.5 196V215H225.5Z" fill="black"/>
<path d="M263.5 215C263 202 252.5 196 245.5 196V215H263.5Z" fill="black"/>
<path d="M263.5 217C263 230 252.5 234 245.5 234V217H263.5Z" fill="black"/>
<path fill-rule="evenodd" clip-rule="evenodd" d="M396.5 335.5C281 335.5 291 182.5 396.5 182.5C509 182.5 504 335.5 396.5 335.5ZM396.5 251C384.5 251 384.5 268.5 396.5 268.5C408.5 268.5 408.5 251 396.5 251Z" fill="black"/>
<path d="M396.5 255C391 255 390.5 264 396.5 264C402.5 264 402 255 396.5 255Z" fill="black"/>
<path d="M530 217C530.5 230 541 234 548 234V217H530Z" fill="black"/>
<path d="M530 215C530.5 202 541 196 548 196V215H530Z" fill="black"/>
<path d="M568 215C567.5 202 557 196 550 196V215H568Z" fill="black"/>
<path d="M568 217C567.5 230 557 234 550 234V217H568Z" fill="black"/>
<path d="M254 109.5C268.5 101 279.9 95.1 295.5 89.5V45L256 48.5L254 109.5Z" fill="black"/>
<path d="M264.5 45L286 43.5C286 43.5 270 34.5 279.5 27.5C282 25.6579 286 22 286 14C284 3.5 273 1 273 1C273 1 282.129 3.48484 279.5 14C276.871 24.5152 271.5 23 267 27.5C262.5 32 264.5 45 264.5 45Z" fill="black"/>
<path fill-rule="evenodd" clip-rule="evenodd" d="M0.5 335.5C0.5 335.5 97.0978 293 119.5 257C234 73 368.5 73 396.5 73C424.5 73 568 73 668.5 257C688.709 294 792.5 335.5 792.5 335.5H428.5C435.5 335.5 486 317.002 486 259.5C486 201.998 445 175 396.5 175C365.5 175 307 195 307 259.5C307 310 334.5 326.5 356 335.5H0.5ZM244.5 193.5C219 193.5 213.5 235.575 244.5 236C274 236.404 273 193.5 244.5 193.5ZM549 193.5C523.5 193.5 518 235.575 549 236C578.5 236.404 577.5 193.5 549 193.5Z" stroke="black"/>
<path d="M225.5 217C226 230 236.5 234 243.5 234V217H225.5Z" stroke="black"/>
<path d="M225.5 215C226 202 236.5 196 243.5 196V215H225.5Z" stroke="black"/>
<path d="M263.5 215C263 202 252.5 196 245.5 196V215H263.5Z" stroke="black"/>
<path d="M263.5 217C263 230 252.5 234 245.5 234V217H263.5Z" stroke="black"/>
<path fill-rule="evenodd" clip-rule="evenodd" d="M396.5 335.5C281 335.5 291 182.5 396.5 182.5C509 182.5 504 335.5 396.5 335.5ZM396.5 251C384.5 251 384.5 268.5 396.5 268.5C408.5 268.5 408.5 251 396.5 251Z" stroke="black"/>
<path d="M396.5 255C391 255 390.5 264 396.5 264C402.5 264 402 255 396.5 255Z" stroke="black"/>
<path d="M530 217C530.5 230 541 234 548 234V217H530Z" stroke="black"/>
<path d="M530 215C530.5 202 541 196 548 196V215H530Z" stroke="black"/>
<path d="M568 215C567.5 202 557 196 550 196V215H568Z" stroke="black"/>
<path d="M568 217C567.5 230 557 234 550 234V217H568Z" stroke="black"/>
<path d="M254 109.5C268.5 101 279.9 95.1 295.5 89.5V45L256 48.5L254 109.5Z" stroke="black"/>
<path d="M264.5 45L286 43.5C286 43.5 270 34.5 279.5 27.5C282 25.6579 286 22 286 14C284 3.5 273 1 273 1C273 1 282.129 3.48484 279.5 14C276.871 24.5152 271.5 23 267 27.5C262.5 32 264.5 45 264.5 45Z" stroke="black"/>
</svg>
