<svg width="432" height="983" viewBox="0 0 432 983" fill="none" xmlns="http://www.w3.org/2000/svg">
<path fill-rule="evenodd" clip-rule="evenodd" d="M199.6 2.20206C196.016 3.42506 190.741 5.93106 187.878 7.77106C180.569 12.4661 168.929 25.2391 163.961 34.0131C157.921 44.6821 157.642 46.3801 163.155 38.9261C169.652 30.1431 183.819 16.1911 191.031 11.4751C194.271 9.35606 199.945 6.57006 203.639 5.28406L210.356 2.94606L216.002 4.89106C231.291 10.1561 243.059 19.7351 257.022 38.2771C261.395 44.0861 265.133 48.6781 265.328 48.4831C265.522 48.2881 264.243 45.2701 262.484 41.7771C252.776 22.5041 239.492 9.60006 221.901 2.35906C214.603 -0.644939 208.076 -0.690939 199.6 2.20206ZM199.806 8.35706C190.459 12.9031 182.543 19.0251 174.194 28.1631C168.127 34.8031 154.992 52.7581 155.821 53.2781C156.013 53.3991 159.659 55.2331 163.923 57.3541C177.361 64.0401 190.082 77.908 195.653 91.946C201.288 106.146 203.105 137.739 202.295 207.425C201.97 235.476 201.423 259.579 201.082 260.989C200.497 263.399 200.806 263.648 206.27 265.171C209.466 266.061 212.167 266.703 212.271 266.597C213.022 265.847 209.476 106.683 208.601 101.859C206.272 89.002 200.094 73.947 192.619 62.915C188.314 56.56 176.208 44.7861 171.423 42.3001C169.627 41.3671 168.704 40.4191 169.371 40.1931C172.574 39.1101 187.609 52.6591 194.147 62.5191C198.678 69.3531 204.842 82.451 207.279 90.426L209.113 96.426L209.436 87.926C209.613 83.251 209.464 74.899 209.103 69.366L208.447 59.3061L196.044 48.4531C189.223 42.4841 183.641 37.2041 183.641 36.7201C183.641 36.2361 185.652 33.6871 188.112 31.0551C193.232 25.5751 200.318 21.4221 206.116 20.5031C211.017 19.7261 220.164 21.9931 225.35 25.2711C229.125 27.6571 236.614 35.2881 236.546 36.6791C236.526 37.0901 234.48 38.7141 231.999 40.2891C229.518 41.8631 223.691 46.7491 219.05 51.1471L210.611 59.1441V78.235C210.611 88.735 210.985 96.899 211.441 96.376C211.898 95.854 213.054 92.501 214.01 88.926C220.037 66.388 231.608 49.6161 245.752 42.9181C249.224 41.2731 252.965 39.9581 254.064 39.9941C256.223 40.0671 256.536 39.8961 247.098 43.7891C233.999 49.1911 222.338 65.755 214.896 89.526L212.11 98.426L212.191 141.426C212.236 165.076 212.624 203.157 213.055 226.05L213.839 267.675L217.857 266.094L221.876 264.514L221.251 251.97C218.121 189.21 220.175 118.294 225.728 97.426C227.77 89.754 233.835 78.943 239.684 72.554C246.402 65.213 252.514 60.9971 261.056 57.8061C264.353 56.5751 267.232 55.4291 267.453 55.2591C267.675 55.0901 263.298 48.9211 257.727 41.5501C244.805 24.4531 235.045 15.2421 224.098 9.81106C212.619 4.11706 208.972 3.89906 199.806 8.35706ZM198.903 24.4741C193.901 26.9691 185.196 35.2111 185.821 36.8591C186.076 37.5281 199.517 49.6581 207.852 56.7391C209.433 58.0821 210.284 57.5501 217.342 50.8061C221.606 46.7311 227.23 41.8651 229.84 39.9921C232.45 38.1191 234.585 36.2711 234.585 35.8841C234.585 35.4971 232.537 33.2911 230.035 30.9821C220.186 21.8931 208.833 19.5201 198.903 24.4741ZM217.915 29.2831C219.7 30.0301 222.596 32.0781 224.352 33.8351L227.544 37.0301L224.321 39.8071C222.549 41.3331 218.529 44.5041 215.385 46.8521L209.671 51.1221L201.151 44.3631C196.465 40.6451 192.631 37.2661 192.631 36.8531C192.631 35.6731 198.815 30.7601 202.121 29.3151C206.052 27.5951 213.843 27.5801 217.915 29.2831ZM154.672 58.2351C154.672 62.6991 156.288 64.409 161.93 65.92C179.734 70.687 188.642 88.9811 193.324 130.389C196.037 154.381 195.439 210.464 191.987 255.676L191.357 263.926H195.354H199.35L199.972 257.176C201.364 242.057 201.852 167.841 200.718 143.632C199.349 114.396 198.292 104.722 195.511 95.926C191.455 83.103 181.703 70.431 169.829 62.557C164.304 58.893 156.621 54.9261 155.05 54.9261C154.842 54.9261 154.672 56.4151 154.672 58.2351ZM261.906 58.9041C249.903 63.1791 238.796 73.209 232.403 85.547C227.597 94.82 225.992 100.265 223.884 114.426C222.309 125.016 222.099 134.181 222.1 192.426C222.101 228.726 222.446 259.664 222.868 261.176C223.542 263.594 224.122 263.926 227.657 263.926C231.634 263.926 231.673 263.89 231.164 260.676C230.1 253.965 228.404 224.79 227.698 201.032C225.684 133.361 232.117 90.061 246.643 73.497C250.476 69.128 258.507 64.951 263.104 64.936C266.897 64.924 268.548 63.3441 268.548 59.7261C268.548 56.4871 268.656 56.5001 261.906 58.9041ZM188.74 268.94C185.539 273.363 184.823 277.533 186.672 280.992C187.597 282.722 188.852 282.926 198.552 282.926C207.272 282.926 209.511 283.22 209.974 284.426C210.29 285.251 211.7 285.926 213.109 285.926C214.517 285.926 215.927 285.251 216.243 284.426C216.706 283.222 218.931 282.926 227.539 282.926C238.058 282.926 238.282 282.878 239.419 280.379C241.7 275.368 240.074 271.181 234.384 267.412C231.041 265.197 229.793 264.915 225.787 265.47C223.209 265.828 219.241 266.992 216.968 268.057C212.853 269.987 212.825 269.986 209.308 267.908C207.086 266.596 203.193 265.606 198.809 265.238L191.842 264.654L188.74 268.94ZM189.808 287.995C190.4 289.697 190.679 294.824 190.433 299.505C190.05 306.834 190.199 307.887 191.561 307.492C202.832 304.226 217.581 304.224 233.665 307.487L236.242 308.01L236.162 296.472L236.084 284.935L227.308 284.93C220.732 284.927 217.884 285.351 215.945 286.623C213.513 288.218 213.182 288.218 210.406 286.623C208.205 285.358 205.069 284.926 198.096 284.926H188.739L189.808 287.995ZM198.821 307.411C194.26 308.119 190.388 308.862 190.219 309.062C190.049 309.262 190.13 314.485 190.399 320.667L190.889 331.909L195.006 331.167C197.271 330.76 207.327 330.441 217.353 330.46C234.045 330.492 235.537 330.352 235.045 328.799C234.749 327.867 234.994 323.183 235.588 318.392C236.183 313.6 236.5 309.509 236.292 309.301C235.597 308.606 215.159 305.962 211.111 306.043C208.913 306.088 203.383 306.703 198.821 307.411ZM199.088 331.85C189.492 333.386 190.134 332.378 190.134 345.927C190.134 356.236 190.347 357.857 191.632 357.298C194.997 355.836 222.071 355.744 228.859 357.171L235.62 358.593L235.352 345.772C235.138 335.497 234.787 332.826 233.586 332.326C231.199 331.331 204.623 330.965 199.088 331.85ZM195.693 357.999C192.707 358.529 190.132 359.095 189.971 359.256C189.809 359.417 190.124 362.221 190.669 365.488C191.214 368.754 191.38 373.768 191.038 376.631L190.414 381.836L194.269 381.131C199.307 380.21 226.946 380.22 232.088 381.145L236.084 381.863V370.923V359.983L231.089 358.845C224.402 357.322 202.459 356.798 195.693 357.999ZM196.663 382.031C193.112 382.574 190.136 383.11 190.047 383.222C189.959 383.334 189.668 388.971 189.4 395.749L188.915 408.073L191.522 407.368C203.553 404.115 217.212 404.152 233.636 407.481L236.184 407.997L236.133 399.212C236.106 394.38 236.308 388.884 236.583 386.999C237.037 383.882 236.812 383.491 234.086 382.679C229.604 381.343 204.049 380.9 196.663 382.031ZM198.827 406.973C195.917 407.496 192.297 408.564 190.784 409.348C188.147 410.713 188.048 411.039 188.414 417.099C188.625 420.579 188.348 425.393 187.796 427.797L186.795 432.168L190.962 431.514C200.231 430.058 220.397 429.705 228.955 430.848C233.826 431.499 237.895 431.895 237.998 431.728C238.101 431.562 237.937 426.493 237.635 420.463L237.082 409.501L231.089 408.258C222.771 406.534 205.179 405.834 198.827 406.973ZM199.124 431.996C195.278 432.44 190.783 433.054 189.135 433.361L186.138 433.918L186.455 443.35C186.628 448.537 186.359 454.277 185.855 456.104L184.938 459.426H212.783H240.627L239.853 454.926C239.428 452.451 239.08 446.708 239.08 442.164C239.08 432.638 240.001 433.422 227.093 431.96C216.94 430.811 209.307 430.82 199.124 431.996ZM417.874 450.426C413.876 462.217 409.1 469.103 401.403 474.175L398.906 475.821L402.206 475.874C404.84 475.915 406.916 474.712 412.471 469.926C416.301 466.626 419.997 463.926 420.684 463.926C422.933 463.926 427.375 472.048 427.375 476.158C427.375 480.799 425.4 485.761 422.536 488.315C420.431 490.192 420.376 490.165 412.943 483.506C405.893 477.19 405.223 476.825 401.188 477.117L396.908 477.426L401.461 480.105C407.453 483.632 413.99 490.837 416.523 496.706L418.56 501.426L422.89 496.665C428.085 490.953 431.775 481.081 431.764 472.926C431.756 466.423 428.709 459.794 422.573 452.926C418.951 448.872 418.486 448.624 417.874 450.426ZM8.00818 454.463C0.396476 463.121 -1.12686 475.249 3.77979 488.146C5.70369 493.202 15.6638 505.976 14.5251 501.926C13.4133 497.972 21.7652 487.035 30.2809 481.294L35.2754 477.926L30.7943 477.949C26.7228 477.97 25.634 478.565 18.9093 484.442C11.796 490.658 11.4514 490.833 10.1139 488.92C6.83246 484.231 4.74873 477.906 5.37805 474.546C6.17817 470.279 9.38168 464.926 11.1358 464.926C11.87 464.926 15.5729 467.401 19.3648 470.426C25.1525 475.043 26.9046 475.925 30.2819 475.922L34.3035 475.919L30.8073 473.82C23.4094 469.38 18.281 463.023 15.533 454.885C14.7189 452.474 13.6071 450.353 13.0627 450.171C12.5183 449.99 10.2437 451.921 8.00818 454.463ZM16.8226 453.738C16.8226 456.543 21.923 464.789 25.8627 468.352C28.1732 470.442 32.0759 473.043 34.5353 474.132C38.9005 476.065 40.7145 476.098 110.076 475.502C149.163 475.166 188.898 474.625 198.375 474.301L215.606 473.711V466.705V459.7L200.372 460.419C189.238 460.945 184.695 461.532 183.486 462.602C179.035 466.54 173.49 467.072 129.699 467.76C34.723 469.251 33.6592 469.16 23.0658 458.667C19.6325 455.266 16.8226 453.048 16.8226 453.738ZM411.03 458.035C406.423 462.936 399.111 466.474 390.915 467.766C387.194 468.353 361.348 468.389 322.745 467.861C264.326 467.061 260.169 466.886 253.964 464.968C250.332 463.845 246.374 462.926 245.169 462.926C243.963 462.926 242.548 462.534 242.027 462.054C241.505 461.574 235.572 460.903 228.841 460.562L216.605 459.943V466.934C216.605 470.78 216.718 473.961 216.854 474.005C216.991 474.048 256.436 474.437 304.509 474.87C374.468 475.499 392.77 475.401 396.204 474.375C401.711 472.732 406.607 468.967 410.16 463.646C412.678 459.875 415.714 453.923 415.117 453.928C414.991 453.929 413.152 455.777 411.03 458.035ZM89.7431 476.819L40.297 477.426L35.0167 480.211C28.35 483.727 22.2886 489.158 18.6526 494.872C17.0963 497.317 15.8237 499.638 15.8237 500.029C15.8237 500.421 18.6336 497.941 22.0668 494.52C32.1269 484.496 28.2511 484.926 108.454 484.926C174.536 484.926 176.545 484.982 178.811 486.884C180.094 487.961 184.559 491.543 188.732 494.843C192.907 498.143 198.904 503.899 202.06 507.634C205.215 511.37 208.642 515.427 209.674 516.65C213.909 521.666 219.893 520.832 224.362 514.603C229.05 508.068 243.263 493.825 249.985 488.924L255.897 484.616L284.947 484.211C300.926 483.988 332.428 484.186 354.954 484.651C401.971 485.622 401.314 485.498 411.178 495.222C416.354 500.324 416.434 500.362 415.31 497.133C413.445 491.775 404.958 483.326 397.993 479.894L391.742 476.813L265.465 476.512C196.013 476.347 116.938 476.485 89.7431 476.819ZM214.636 506.869C212.108 511.831 212.039 515.55 214.452 516.843C217.984 518.735 222.976 512.514 219.601 510.426C218.389 509.676 218.277 507.926 219.441 507.926C219.902 507.926 220.762 508.987 221.353 510.283C222.772 513.401 220.965 517.074 217.392 518.331C211.73 520.325 209.644 513.21 213.608 505.426C215.244 502.212 215.645 499.236 215.824 488.965L216.042 476.426L216.352 489.659C216.627 501.357 216.427 503.354 214.636 506.869ZM177.647 493.946C177.647 498.29 178.138 499.721 180.579 502.504C187.736 510.666 193.977 526.082 197.765 544.959L200.04 556.293L202.497 548.049C205.173 539.069 210.006 532.436 214.607 531.429C220.589 530.12 228.484 540.356 230.17 551.608C230.526 553.983 231.123 555.926 231.499 555.926C231.874 555.926 232.702 552.888 233.34 549.176C236.172 532.679 243.927 512.32 250.58 503.911C253.09 500.737 253.564 499.248 253.564 494.532C253.564 491.449 253.198 488.926 252.751 488.926C250.895 488.926 237.591 501.237 231.089 508.971C220.791 521.219 221.159 520.926 216.105 520.926C211.107 520.926 211.153 520.961 202.447 510.34C197.047 503.753 186.932 494.615 180.591 490.596L177.647 488.73V493.946ZM177.675 503.676C177.691 504.089 178.702 506.254 179.923 508.488C186.243 520.057 189.168 526.1 192.207 533.872C196.195 544.067 196.535 543.282 193.167 531.649C190.149 521.223 186.759 513.418 182.662 507.454C179.862 503.381 177.6 501.667 177.675 503.676ZM249.806 507.556C245.29 514.601 240.977 524.518 238.086 534.504C234.529 546.795 235.086 548.182 239.013 536.81C242.149 527.732 244.461 522.564 250.947 510.139C254.605 503.13 253.805 501.317 249.806 507.556ZM180.254 545.648C180.534 563.676 181.135 609.378 181.59 647.209L182.416 715.992L184.963 719.709C186.364 721.753 187.805 724.776 188.166 726.426C189.452 732.316 189.862 733.116 193.967 737.767C196.254 740.356 198.917 743.589 199.885 744.951C201.579 747.334 201.626 746.519 201.14 722.926C200.862 709.451 200.372 668.276 200.05 631.426C199.468 564.914 199.447 564.356 197.056 554.783C192.907 538.167 183.924 515.456 180.719 513.472C180.09 513.083 179.925 524.477 180.254 545.648ZM246.322 522.676C241.676 532.64 235.773 549.935 233.544 560.108C232.567 564.569 232.408 601.435 232.8 731.608L233.301 897.426L236.078 903.926C238.261 909.038 239.016 912.775 239.613 921.426C240.041 927.64 241.068 934.044 241.973 936.144C243.088 938.731 243.575 942.895 243.575 949.835C243.575 955.405 244.016 960.081 244.574 960.426C245.124 960.766 245.573 963.177 245.573 965.785C245.573 968.393 246.136 971.087 246.822 971.773C247.509 972.459 248.307 976.261 248.598 980.223C249.785 996.447 250.585 915.598 251.175 719.676C251.518 605.963 251.589 512.926 251.334 512.926C251.078 512.926 248.824 517.314 246.322 522.676ZM210.353 535.676C208.905 537.189 206.75 540.625 205.564 543.312C200.763 554.179 200.673 556.789 201.696 654.926C202.672 748.442 203.365 767.761 205.967 773.944C206.781 775.879 207.747 780.829 208.114 784.944C209.009 795.01 210.262 798.642 214.193 802.579C216.486 804.874 218.155 808.062 219.593 812.898C221.689 819.943 222.678 821.071 227.842 822.307L230.589 822.964V691.105C230.589 562.498 230.541 559.053 228.591 551.422C224.382 534.949 217.079 528.644 210.353 535.676Z" fill="black"/>
</svg>
