<svg width="1650" height="2448" viewBox="0 0 1650 2448" fill="none" xmlns="http://www.w3.org/2000/svg">
<path d="M57 158H54V158.049L54.0016 158.098L57 158ZM24.1644 353.98C24.7054 355.546 26.4135 356.377 27.9796 355.836L53.4997 347.02C55.0657 346.479 55.8967 344.77 55.3557 343.204C54.8147 341.638 53.1066 340.807 51.5406 341.348L28.856 349.185L21.0195 326.5C20.4785 324.934 18.7704 324.103 17.2044 324.644C15.6384 325.185 14.8074 326.893 15.3484 328.459L24.1644 353.98ZM2.13796 391.127C0.550978 391.603 -0.349572 393.275 0.126521 394.862C0.602615 396.449 2.27507 397.35 3.86204 396.873L2.13796 391.127ZM75 377L74.5369 374.036L75 377ZM288 365L290.829 365.998L290.829 365.998L288 365ZM289.774 306.581C288.438 305.601 286.561 305.89 285.581 307.226L269.614 328.999C268.634 330.335 268.923 332.212 270.259 333.192C271.595 334.172 273.473 333.883 274.452 332.547L288.645 313.193L307.999 327.386C309.335 328.366 311.212 328.077 312.192 326.741C313.172 325.405 312.883 323.527 311.547 322.548L289.774 306.581ZM315.476 286.306C314.54 284.939 312.673 284.589 311.306 285.524C309.939 286.46 309.588 288.327 310.524 289.694L315.476 286.306ZM354 317L352.428 319.555L354 317ZM403 297L405.528 298.615L405.691 298.36L405.8 298.077L403 297ZM525 297L526.842 294.632L526.842 294.632L525 297ZM556 369L553.188 370.046L553.587 371.117L554.596 371.651L556 369ZM709 359L711.018 361.22L711.083 361.161L711.144 361.099L709 359ZM747.622 346.524C749.016 345.628 749.419 343.771 748.524 342.378L733.923 319.666C733.027 318.272 731.171 317.869 729.777 318.765C728.384 319.661 727.98 321.517 728.876 322.91L741.854 343.099L721.666 356.077C720.272 356.973 719.869 358.829 720.765 360.223C721.661 361.616 723.517 362.02 724.91 361.124L747.622 346.524ZM790.977 434.628C790.771 432.984 789.272 431.818 787.628 432.023C785.984 432.229 784.818 433.728 785.023 435.372L790.977 434.628ZM624.37 688.442C625.166 689.895 626.99 690.427 628.442 689.63L652.116 676.648C653.569 675.851 654.101 674.028 653.304 672.575C652.508 671.122 650.684 670.59 649.231 671.387L628.188 682.927L616.648 661.884C615.851 660.431 614.028 659.899 612.575 660.696C611.122 661.492 610.59 663.316 611.387 664.769L624.37 688.442ZM819.285 796.944C820.359 795.683 820.206 793.789 818.944 792.715C817.683 791.642 815.789 791.794 814.715 793.056L819.285 796.944ZM837 880L835.907 882.794L835.907 882.794L837 880ZM884.507 912.959C886.141 913.232 887.687 912.127 887.959 910.493L892.398 883.861C892.67 882.226 891.566 880.681 889.932 880.408C888.298 880.136 886.752 881.24 886.48 882.874L882.534 906.548L858.861 902.602C857.226 902.33 855.681 903.434 855.408 905.068C855.136 906.702 856.24 908.248 857.874 908.521L884.507 912.959ZM1003.92 968.298C1003.53 966.687 1001.91 965.696 1000.3 966.083C998.687 966.471 997.696 968.091 998.083 969.702L1003.92 968.298ZM1128 1063L1127.01 1065.83L1128 1063ZM1146 1157L1148.55 1158.58L1149.14 1157.63L1148.96 1156.53L1146 1157ZM1205 1189L1206.91 1191.31L1206.91 1191.31L1205 1189ZM1273 1214V1217H1275.81L1275.99 1214.2L1273 1214ZM1211 1271L1208.16 1271.96L1208.48 1272.89L1209.28 1273.46L1211 1271ZM1280 1345L1282.1 1347.14L1282.47 1346.78L1282.69 1346.32L1280 1345ZM1248.52 1521.69C1249.46 1523.06 1251.33 1523.41 1252.69 1522.48L1274.98 1507.23C1276.34 1506.29 1276.69 1504.43 1275.76 1503.06C1274.82 1501.69 1272.96 1501.34 1271.59 1502.28L1251.78 1515.83L1238.23 1496.02C1237.29 1494.66 1235.43 1494.31 1234.06 1495.24C1232.69 1496.18 1232.34 1498.04 1233.28 1499.41L1248.52 1521.69ZM1169.36 1533.43C1170.16 1534.89 1171.98 1535.43 1173.43 1534.64C1174.89 1533.84 1175.43 1532.02 1174.64 1530.57L1169.36 1533.43ZM907.927 1193.2C906.38 1193.79 905.606 1195.53 906.198 1197.07L915.855 1222.29C916.447 1223.83 918.182 1224.61 919.729 1224.02C921.277 1223.42 922.051 1221.69 921.458 1220.14L912.875 1197.73L935.287 1189.15C936.834 1188.55 937.608 1186.82 937.016 1185.27C936.423 1183.72 934.688 1182.95 933.141 1183.54L907.927 1193.2ZM792.983 1321.68C792.808 1320.04 791.33 1318.84 789.683 1319.02C788.035 1319.19 786.841 1320.67 787.016 1322.32L792.983 1321.68ZM841.087 1612.31C842.363 1613.37 844.254 1613.19 845.311 1611.91L862.526 1591.11C863.583 1589.84 863.405 1587.95 862.128 1586.89C860.852 1585.83 858.961 1586.01 857.904 1587.29L842.601 1605.78L824.113 1590.47C822.837 1589.42 820.946 1589.59 819.889 1590.87C818.833 1592.15 819.011 1594.04 820.287 1595.1L841.087 1612.31ZM789.834 1648.76C791.361 1649.41 793.121 1648.69 793.764 1647.17L804.255 1622.29C804.899 1620.76 804.183 1619 802.657 1618.36C801.13 1617.71 799.37 1618.43 798.727 1619.96L789.401 1642.07L767.287 1632.74C765.76 1632.1 764.001 1632.82 763.357 1634.34C762.713 1635.87 763.429 1637.63 764.956 1638.27L789.834 1648.76ZM768.166 1584.24C766.639 1583.59 764.879 1584.31 764.236 1585.83L753.745 1610.71C753.101 1612.24 753.817 1614 755.343 1614.64C756.87 1615.29 758.63 1614.57 759.273 1613.04L768.599 1590.93L790.713 1600.26C792.24 1600.9 793.999 1600.18 794.643 1598.66C795.287 1597.13 794.571 1595.37 793.044 1594.73L768.166 1584.24ZM737.024 1502C738.681 1501.99 740.013 1500.63 740 1498.98L739.785 1471.98C739.772 1470.32 738.418 1468.99 736.761 1469C735.104 1469.01 733.772 1470.37 733.785 1472.02L733.976 1496.02L709.977 1496.21C708.32 1496.23 706.988 1497.58 707.001 1499.24C707.014 1500.9 708.368 1502.23 710.025 1502.21L737.024 1502ZM546.976 1309C545.319 1309.01 543.987 1310.37 544 1312.02L544.215 1339.02C544.228 1340.68 545.582 1342.01 547.239 1342C548.896 1341.99 550.228 1340.63 550.215 1338.98L550.024 1314.98L574.023 1314.79C575.68 1314.77 577.012 1313.42 576.999 1311.76C576.986 1310.1 575.632 1308.77 573.975 1308.79L546.976 1309ZM770.584 1687.97C772.225 1688.2 773.742 1687.06 773.971 1685.42C774.201 1683.77 773.057 1682.26 771.416 1682.03L770.584 1687.97ZM691.858 1682.23C690.326 1682.86 689.595 1684.61 690.226 1686.14L700.506 1711.11C701.137 1712.64 702.89 1713.37 704.422 1712.74C705.954 1712.11 706.685 1710.36 706.054 1708.82L696.917 1686.63L719.109 1677.49C720.641 1676.86 721.372 1675.11 720.741 1673.58C720.11 1672.05 718.357 1671.31 716.824 1671.95L691.858 1682.23ZM784.372 1817.98C786.016 1817.77 787.183 1816.27 786.977 1814.63C786.772 1812.98 785.272 1811.82 783.628 1812.02L784.372 1817.98ZM744 1820L743.711 1822.99L744.042 1823.02L744.372 1822.98L744 1820ZM737 1841L734.879 1843.12L734.879 1843.12L737 1841ZM744 1879L741.359 1877.58L741.359 1877.58L744 1879ZM670 1909L667.975 1906.79L666.551 1908.09L667.147 1909.93L670 1909ZM722 1946V1949H722.342L722.675 1948.92L722 1946ZM744 1978L741.095 1978.75L741.095 1978.75L744 1978ZM796 1998L798.992 1997.78L798.917 1996.76L798.238 1996L796 1998ZM765 2072L766.489 2074.6L766.794 2074.43L767.05 2074.19L765 2072ZM626 2217L623.245 2215.81L626 2217ZM796 2443L797.219 2440.26L796.977 2440.15L796.72 2440.09L796 2443ZM972 2288L971.238 2285.1L970.753 2285.23L970.336 2285.5L972 2288ZM1204 2296L1203.97 2299L1204.24 2299L1204.52 2298.96L1204 2296ZM1421 2202L1423.12 2204.12L1423.92 2203.32L1423.99 2202.2L1421 2202ZM1447 2137L1448.01 2139.83L1448.01 2139.83L1447 2137ZM1493.68 1970.52C1492.31 1969.59 1490.45 1969.94 1489.52 1971.32L1474.36 1993.66C1473.43 1995.03 1473.79 1996.9 1475.16 1997.83C1476.53 1998.76 1478.4 1998.4 1479.33 1997.03L1492.8 1977.17L1512.66 1990.64C1514.03 1991.57 1515.9 1991.21 1516.83 1989.84C1517.76 1988.47 1517.4 1986.6 1516.03 1985.67L1493.68 1970.52ZM1461.32 1822.34C1462.06 1823.83 1463.86 1824.42 1465.34 1823.68L1489.48 1811.58C1490.96 1810.84 1491.56 1809.04 1490.82 1807.56C1490.08 1806.08 1488.28 1805.48 1486.79 1806.22L1465.34 1816.97L1454.58 1795.52C1453.84 1794.04 1452.04 1793.44 1450.56 1794.18C1449.08 1794.92 1448.48 1796.72 1449.22 1798.21L1461.32 1822.34ZM1638.21 1615.9C1639.81 1616.33 1641.46 1615.39 1641.9 1613.79L1648.98 1587.73C1649.41 1586.13 1648.47 1584.48 1646.87 1584.05C1645.27 1583.62 1643.62 1584.56 1643.19 1586.16L1636.89 1609.32L1613.73 1603.02C1612.13 1602.59 1610.48 1603.53 1610.05 1605.13C1609.62 1606.73 1610.56 1608.38 1612.16 1608.81L1638.21 1615.9ZM47.3987 0.505627C41.6419 10.5266 39.3443 23.3011 38.9823 37.0963C38.6193 50.9287 40.1982 66.0784 42.4329 81.0431C44.6651 95.9911 47.5839 110.947 49.9138 124.243C52.2624 137.646 54 149.299 54 158H60C60 148.701 58.1626 136.554 55.8237 123.207C53.4661 109.753 50.5849 95.0089 48.3671 80.1569C46.1518 65.3216 44.6307 50.5713 44.9802 37.2537C45.3307 23.8989 47.5581 12.2734 52.6013 3.49437L47.3987 0.505627ZM54.0016 158.098C55.3432 199.018 67.1081 263.698 24.3023 351.688L29.6977 354.312C73.2919 264.702 61.3234 198.315 59.9984 157.902L54.0016 158.098ZM3.86204 396.873C17.1495 392.887 50.0638 383.933 75.4631 379.964L74.5369 374.036C48.7362 378.067 15.5172 387.113 2.13796 391.127L3.86204 396.873ZM75.4631 379.964C90.9205 377.549 112.914 380.447 137.449 383.97C161.737 387.457 188.263 391.506 212.064 390.999L211.936 385.001C188.737 385.494 162.763 381.543 138.301 378.03C114.086 374.553 91.0795 371.451 74.5369 374.036L75.4631 379.964ZM212.064 390.999C235.578 390.499 253.415 389 266.191 385.387C279.043 381.752 287.372 375.792 290.829 365.998L285.171 364.002C282.628 371.208 276.457 376.248 264.559 379.613C252.585 383 235.422 384.501 211.936 385.001L212.064 390.999ZM290.829 365.998C293.435 358.616 293.899 347.358 293.548 336.677C293.194 325.864 291.98 315.143 290.965 308.544L285.035 309.456C286.02 315.857 287.206 326.336 287.552 336.873C287.901 347.542 287.365 357.784 285.171 364.002L290.829 365.998ZM310.524 289.694C317.192 299.439 321.273 303.095 327.21 306.27C333.013 309.374 339.461 311.575 352.428 319.555L355.572 314.445C342.539 306.425 334.987 303.626 330.04 300.98C325.227 298.405 321.808 295.561 315.476 286.306L310.524 289.694ZM352.428 319.555C364.063 326.715 375.63 324.352 384.943 318.887C394.159 313.48 401.523 304.884 405.528 298.615L400.472 295.385C396.81 301.116 390.074 308.92 381.907 313.712C373.837 318.448 364.737 320.085 355.572 314.445L352.428 319.555ZM405.8 298.077C407.775 292.943 413.756 288.751 423.325 285.958C432.726 283.214 444.8 282.066 457.553 282.374C470.281 282.682 483.527 284.436 495.217 287.393C506.97 290.366 516.883 294.487 523.158 299.368L526.842 294.632C519.617 289.012 508.78 284.634 496.689 281.576C484.536 278.502 470.844 276.693 457.697 276.376C444.575 276.059 431.836 277.223 421.644 280.198C411.619 283.124 403.225 288.057 400.2 295.923L405.8 298.077ZM523.158 299.368C531.52 305.871 535.008 312.501 538.401 323.049C541.788 333.58 545.178 348.519 553.188 370.046L558.812 367.954C550.822 346.481 547.72 332.426 544.112 321.211C540.51 310.012 536.497 302.142 526.842 294.632L523.158 299.368ZM554.596 371.651C572.056 380.895 599.785 388.496 628.724 388.75C657.668 389.004 688.265 381.904 711.018 361.22L706.982 356.78C685.735 376.096 656.832 382.996 628.776 382.75C600.715 382.504 573.944 375.105 557.404 366.349L554.596 371.651ZM709 359C711.144 361.099 711.143 361.099 711.143 361.1C711.143 361.1 711.142 361.1 711.142 361.1C711.142 361.101 711.142 361.101 711.142 361.1C711.143 361.1 711.145 361.098 711.147 361.095C711.153 361.089 711.163 361.079 711.177 361.065C711.206 361.036 711.252 360.99 711.315 360.928C711.441 360.804 711.634 360.618 711.89 360.378C712.401 359.897 713.16 359.206 714.132 358.384C716.079 356.736 718.854 354.584 722.165 352.559C728.901 348.44 737.307 345.18 745.363 346.932L746.637 341.068C736.293 338.82 726.199 343.06 719.035 347.441C715.396 349.666 712.371 352.014 710.256 353.804C709.196 354.7 708.359 355.462 707.781 356.005C707.492 356.277 707.267 356.494 707.111 356.647C707.034 356.723 706.973 356.784 706.93 356.826C706.909 356.848 706.892 356.865 706.88 356.877C706.874 356.884 706.869 356.889 706.865 356.893C706.863 356.895 706.861 356.897 706.86 356.898C706.859 356.899 706.858 356.9 706.858 356.9C706.857 356.901 706.856 356.901 709 359ZM785.023 435.372C787.157 452.445 775.853 496.695 708.723 528.286L711.277 533.714C780.147 501.305 793.509 454.889 790.977 434.628L785.023 435.372ZM708.723 528.286C665.242 548.747 645.795 582.575 636.375 614.142C631.676 629.891 629.465 645.093 627.989 657.778C627.237 664.241 626.709 669.733 626.111 674.688C625.521 679.579 624.919 683.421 624.12 686.16L629.88 687.84C630.831 684.579 631.479 680.296 632.068 675.406C632.65 670.579 633.232 664.634 633.949 658.472C635.41 645.907 637.574 631.109 642.125 615.858C651.205 585.425 669.758 553.253 711.277 533.714L708.723 528.286ZM814.715 793.056C807.688 801.313 799.103 818.057 799.159 835.62C799.187 844.48 801.417 853.611 807.22 861.907C813.021 870.199 822.243 877.447 835.907 882.794L838.093 877.206C825.302 872.201 817.13 865.606 812.137 858.468C807.146 851.333 805.184 843.445 805.159 835.601C805.109 819.758 812.979 804.353 819.285 796.944L814.715 793.056ZM835.907 882.794C858.983 891.824 873.143 898.562 882.559 911.744L887.441 908.256C876.857 893.438 861.017 886.176 838.093 877.206L835.907 882.794ZM998.083 969.702C1000.45 979.54 1009.9 995.544 1029.95 1013.01C1050.09 1030.55 1081.11 1049.73 1127.01 1065.83L1128.99 1060.17C1083.69 1044.27 1053.37 1025.45 1033.9 1008.49C1014.34 991.456 1005.88 976.46 1003.92 968.298L998.083 969.702ZM1127.01 1065.83C1141.18 1070.8 1151.9 1075.37 1159.85 1079.61C1167.82 1083.87 1172.84 1087.71 1175.78 1091.16C1178.65 1094.54 1179.45 1097.44 1179.22 1100.04C1178.99 1102.79 1177.59 1105.69 1175.12 1108.93C1172.65 1112.16 1169.34 1115.43 1165.66 1118.93C1162.04 1122.37 1158.04 1126.04 1154.49 1129.86C1147.45 1137.44 1141.3 1146.5 1143.04 1157.47L1148.96 1156.53C1147.7 1148.5 1152.05 1141.31 1158.89 1133.95C1162.27 1130.3 1166.06 1126.83 1169.79 1123.28C1173.47 1119.79 1177.1 1116.22 1179.88 1112.57C1182.66 1108.93 1184.83 1104.93 1185.2 1100.56C1185.59 1096.05 1184.04 1091.62 1180.35 1087.28C1176.72 1083.01 1170.96 1078.74 1162.67 1074.32C1154.35 1069.88 1143.32 1065.2 1128.99 1060.17L1127.01 1065.83ZM1143.45 1155.42C1139.41 1161.95 1140.68 1168.85 1144.56 1174.72C1148.37 1180.5 1154.84 1185.61 1162.11 1189.42C1169.41 1193.24 1177.79 1195.9 1185.69 1196.56C1193.52 1197.22 1201.31 1195.94 1206.91 1191.31L1203.09 1186.69C1199.19 1189.91 1193.23 1191.18 1186.19 1190.59C1179.21 1190 1171.59 1187.61 1164.89 1184.1C1158.16 1180.58 1152.63 1176.06 1149.57 1171.41C1146.57 1166.87 1146.09 1162.55 1148.55 1158.58L1143.45 1155.42ZM1206.91 1191.31C1212.57 1186.64 1219.86 1181.25 1227.5 1176.96C1235.2 1172.63 1242.97 1169.59 1249.65 1169.25C1252.95 1169.08 1255.89 1169.58 1258.43 1170.82C1260.94 1172.05 1263.23 1174.09 1265.14 1177.31C1269.01 1183.86 1271.24 1195.24 1270.01 1213.8L1275.99 1214.2C1277.26 1195.26 1275.11 1182.39 1270.3 1174.25C1267.86 1170.13 1264.73 1167.22 1261.06 1165.43C1257.42 1163.64 1253.42 1163.05 1249.35 1163.25C1241.28 1163.66 1232.55 1167.24 1224.56 1171.73C1216.51 1176.25 1208.93 1181.86 1203.09 1186.69L1206.91 1191.31ZM1273 1211C1269.14 1211 1262.33 1211.98 1254.61 1214.05C1246.84 1216.12 1237.91 1219.36 1229.85 1224C1221.82 1228.63 1214.42 1234.77 1210.02 1242.76C1205.55 1250.86 1204.3 1260.6 1208.16 1271.96L1213.84 1270.04C1210.5 1260.2 1211.65 1252.21 1215.27 1245.66C1218.95 1238.98 1225.33 1233.52 1232.85 1229.2C1240.34 1224.89 1248.74 1221.83 1256.16 1219.84C1263.62 1217.85 1269.86 1217 1273 1217V1211ZM1209.28 1273.46C1214.59 1277.17 1223.16 1280.84 1232.16 1284.8C1241.33 1288.84 1251.24 1293.3 1259.8 1298.69C1268.4 1304.1 1275.29 1310.24 1278.78 1317.47C1282.18 1324.51 1282.56 1332.99 1277.31 1343.68L1282.69 1346.32C1288.64 1334.21 1288.49 1323.79 1284.18 1314.86C1279.96 1306.13 1271.95 1299.25 1263 1293.61C1254.01 1287.95 1243.72 1283.33 1234.58 1279.31C1225.27 1275.21 1217.41 1271.83 1212.72 1268.54L1209.28 1273.46ZM1277.9 1342.86C1267.43 1353.16 1252.77 1370.29 1242.82 1388.27C1237.85 1397.26 1233.97 1406.61 1232.46 1415.53C1230.93 1424.47 1231.75 1433.19 1236.47 1440.61L1241.53 1437.39C1237.85 1431.61 1237.01 1424.52 1238.37 1416.54C1239.73 1408.53 1243.28 1399.84 1248.08 1391.18C1257.66 1373.84 1271.91 1357.17 1282.1 1347.14L1277.9 1342.86ZM1236.47 1440.61C1244.51 1453.25 1248.18 1468.96 1249.44 1483.65C1250.69 1498.33 1249.5 1511.71 1248.05 1519.45L1253.95 1520.55C1255.5 1512.29 1256.71 1498.37 1255.41 1483.15C1254.12 1467.94 1250.29 1451.15 1241.53 1437.39L1236.47 1440.61ZM1174.64 1530.57C1157.68 1499.39 1142.53 1467.21 1126.85 1435.23C1111.19 1403.29 1095 1371.6 1076.04 1341.62C1038.06 1281.6 988.905 1228.36 910.222 1193.26L907.778 1198.74C985.095 1233.24 1033.44 1285.5 1070.96 1344.83C1089.75 1374.52 1105.81 1405.97 1121.46 1437.87C1137.09 1469.74 1152.32 1502.11 1169.36 1533.43L1174.64 1530.57ZM787.016 1322.32C795.543 1402.57 804.248 1425.97 813.117 1453.71C821.861 1481.06 830.828 1512.84 840.013 1610.28L845.986 1609.72C836.771 1511.96 827.738 1479.74 818.832 1451.89C810.052 1424.43 801.456 1401.43 792.983 1321.68L787.016 1322.32ZM793.779 1644.87L769.779 1585.87L764.221 1588.13L788.221 1647.13L793.779 1644.87ZM739.104 1496.86L549.104 1309.86L544.896 1314.14L734.896 1501.14L739.104 1496.86ZM771.416 1682.03C753.861 1679.57 745.452 1684.96 736.559 1687.9C732.185 1689.35 727.469 1690.32 720.996 1689.79C714.454 1689.25 705.981 1687.16 694.154 1682.23L691.846 1687.77C704.02 1692.84 713.129 1695.16 720.504 1695.77C727.948 1696.38 733.482 1695.24 738.441 1693.6C748.215 1690.37 754.806 1685.76 770.584 1687.97L771.416 1682.03ZM783.628 1812.02L743.628 1817.02L744.372 1822.98L784.372 1817.98L783.628 1812.02ZM744.289 1817.01C741.528 1816.75 738.332 1816.72 735.374 1817.2C732.516 1817.65 729.372 1818.65 727.262 1820.85C726.155 1822 725.368 1823.45 725.091 1825.18C724.819 1826.88 725.065 1828.66 725.715 1830.49C726.99 1834.06 729.97 1838.21 734.879 1843.12L739.122 1838.88C734.43 1834.19 732.194 1830.79 731.367 1828.47C730.966 1827.35 730.94 1826.6 731.015 1826.13C731.085 1825.69 731.267 1825.34 731.589 1825C732.337 1824.22 733.897 1823.51 736.32 1823.12C738.643 1822.75 741.306 1822.75 743.711 1822.99L744.289 1817.01ZM734.879 1843.12C740.775 1849.02 745.393 1853.21 747.975 1855.75C749.365 1857.12 750.26 1858.09 750.825 1858.86C751.374 1859.62 751.461 1859.98 751.48 1860.14C751.496 1860.28 751.5 1860.58 751.183 1861.29C750.846 1862.05 750.269 1863.02 749.342 1864.45C747.533 1867.24 744.736 1871.31 741.359 1877.58L746.642 1880.42C749.876 1874.42 752.51 1870.59 754.378 1867.71C755.291 1866.3 756.114 1864.97 756.667 1863.73C757.24 1862.44 757.624 1861.02 757.439 1859.44C757.256 1857.88 756.56 1856.54 755.673 1855.33C754.801 1854.13 753.606 1852.87 752.183 1851.47C749.136 1848.47 745.226 1844.98 739.122 1838.88L734.879 1843.12ZM741.359 1877.58C740.749 1878.71 740.117 1879.23 739.459 1879.54C738.713 1879.9 737.669 1880.1 736.042 1880.13C734.391 1880.15 732.511 1880.01 730.073 1879.87C727.7 1879.74 724.959 1879.62 721.873 1879.75C709.312 1880.29 691.912 1884.89 667.975 1906.79L672.025 1911.21C695.089 1890.11 711.189 1886.21 722.128 1885.75C724.917 1885.63 727.426 1885.73 729.733 1885.86C731.974 1885.99 734.203 1886.16 736.146 1886.12C738.113 1886.09 740.147 1885.85 742.018 1884.97C743.977 1884.05 745.501 1882.54 746.642 1880.42L741.359 1877.58ZM667.147 1909.93C673.233 1928.69 680.306 1938.83 689.675 1944C698.861 1949.07 709.724 1949 722 1949V1943C709.277 1943 700.14 1942.93 692.576 1938.75C685.195 1934.67 678.768 1926.31 672.854 1908.07L667.147 1909.93ZM722.675 1948.92C723.311 1948.78 725.97 1948.89 729.67 1953.1C733.303 1957.24 737.559 1965 741.095 1978.75L746.906 1977.25C743.241 1963 738.664 1954.26 734.18 1949.15C729.764 1944.11 725.023 1942.22 721.326 1943.08L722.675 1948.92ZM741.095 1978.75C741.694 1981.08 743.738 1981.83 744.981 1982.09C746.239 1982.34 747.777 1982.33 749.231 1982.3C752.343 1982.21 756.206 1981.95 760.838 1982.36C769.911 1983.18 781.842 1986.65 793.763 2000L798.238 1996C785.159 1981.35 771.733 1977.32 761.377 1976.39C756.294 1975.93 751.926 1976.22 749.074 1976.3C747.545 1976.34 746.668 1976.31 746.176 1976.21C745.668 1976.1 746.628 1976.17 746.906 1977.25L741.095 1978.75ZM793.009 1998.22C793.661 2007.02 793.646 2017.85 789.768 2029.96C785.896 2042.06 778.11 2055.63 762.951 2069.81L767.05 2074.19C782.891 2059.37 791.272 2044.94 795.483 2031.79C799.688 2018.65 799.673 2006.98 798.992 1997.78L793.009 1998.22ZM763.512 2069.4C745.775 2079.53 717.833 2099.68 690.805 2125.45C663.797 2151.21 637.474 2182.78 623.245 2215.81L628.756 2218.19C642.527 2186.22 668.204 2155.29 694.946 2129.8C721.668 2104.32 749.226 2084.47 766.489 2074.6L763.512 2069.4ZM623.245 2215.81C617.167 2229.92 619.79 2250.13 627.777 2272.18C635.828 2294.41 649.587 2319.22 666.794 2343.01C684.008 2366.81 704.745 2389.69 726.824 2408.03C748.875 2426.34 772.429 2440.26 795.28 2445.91L796.72 2440.09C775.072 2434.74 752.325 2421.41 730.658 2403.41C709.018 2385.44 688.617 2362.94 671.656 2339.49C654.688 2316.03 641.235 2291.72 633.418 2270.13C625.536 2248.37 623.634 2230.08 628.756 2218.19L623.245 2215.81ZM794.782 2445.74C801.373 2448.67 808.974 2448.07 816.881 2445.31C824.801 2442.54 833.377 2437.49 842.236 2430.99C859.965 2417.96 879.368 2398.69 897.691 2378.62C916.035 2358.54 933.411 2337.53 947.067 2320.99C953.906 2312.71 959.793 2305.57 964.422 2300.19C966.737 2297.51 968.711 2295.29 970.315 2293.61C971.975 2291.88 973.071 2290.89 973.665 2290.5L970.336 2285.5C969.13 2286.31 967.628 2287.74 965.976 2289.47C964.268 2291.26 962.216 2293.56 959.876 2296.28C955.197 2301.71 949.261 2308.91 942.44 2317.17C928.777 2333.72 911.49 2354.61 893.26 2374.58C875.007 2394.56 855.924 2413.49 838.684 2426.15C830.059 2432.49 822.03 2437.15 814.903 2439.64C807.764 2442.14 801.877 2442.33 797.219 2440.26L794.782 2445.74ZM972.763 2290.9C1026.01 2276.9 1057.29 2270.36 1076.7 2268.38C1096.03 2266.42 1103.02 2269.05 1108.21 2272.82C1113.45 2276.65 1118.68 2283.61 1131.4 2288.96C1144.28 2294.39 1165.23 2298.6 1203.97 2299L1204.03 2293C1165.57 2292.6 1145.54 2288.41 1133.73 2283.44C1121.76 2278.39 1118.57 2272.95 1111.74 2267.98C1104.85 2262.95 1096.11 2260.38 1076.09 2262.42C1056.16 2264.44 1024.49 2271.1 971.238 2285.1L972.763 2290.9ZM1204.52 2298.96C1247.77 2291.41 1292.85 2277.24 1331.85 2260.22C1370.78 2243.24 1403.93 2223.31 1423.12 2204.12L1418.88 2199.88C1400.47 2218.29 1368.12 2237.86 1329.45 2254.73C1290.85 2271.56 1246.23 2285.59 1203.48 2293.04L1204.52 2298.96ZM1423.99 2202.2C1424.5 2194.64 1425.24 2180.73 1428.66 2167.7C1432.14 2154.46 1438.05 2143.37 1448.01 2139.83L1445.99 2134.17C1432.97 2138.8 1426.39 2152.71 1422.86 2166.18C1419.27 2179.86 1418.5 2194.36 1418.01 2201.8L1423.99 2202.2ZM1448.01 2139.83C1471.9 2131.33 1487.06 2107.38 1494.54 2077.09C1502.04 2046.71 1502.01 2009.26 1494.95 1972.43L1489.05 1973.57C1495.99 2009.74 1495.96 2046.29 1488.71 2075.66C1481.44 2105.12 1467.1 2126.67 1445.99 2134.17L1448.01 2139.83ZM1466.85 1821.95C1484.82 1767.86 1515.07 1692.75 1547.42 1642.91C1555.49 1630.47 1563.65 1619.67 1571.74 1611.19C1579.84 1602.68 1587.74 1596.65 1595.25 1593.55C1602.68 1590.49 1609.67 1590.29 1616.32 1593.35C1623.07 1596.45 1629.87 1603.09 1636.4 1614.49L1641.6 1611.51C1634.73 1599.51 1627.14 1591.71 1618.82 1587.89C1610.4 1584.03 1601.64 1584.42 1592.96 1588.01C1584.37 1591.55 1575.8 1598.23 1567.39 1607.05C1558.97 1615.88 1550.58 1627.01 1542.38 1639.64C1509.63 1690.12 1479.18 1765.81 1461.15 1820.05L1466.85 1821.95Z" fill="#255542"/>
</svg>
