<svg width="730" height="1191" viewBox="0 0 730 1191" fill="none" xmlns="http://www.w3.org/2000/svg">
<path d="M365 2L1 668L298 470L365 2Z" fill="#5ADD67"/>
<path d="M365 2L298 470H365V2Z" fill="#3ACC49"/>
<path d="M298 470L231 938L365 470H298Z" fill="#5ED269"/>
<path d="M1 668L231 938L298 470L1 668Z" fill="#44CB51"/>
<path d="M1 668L65 1048L231 938L1 668Z" fill="#23932E"/>
<path d="M65 1048L297 1190L231 938L65 1048Z" fill="#187321"/>
<path d="M297 1190H433L365 1016L297 1190Z" fill="#0B7015"/>
<path d="M433 1190L665 1048L505 938L433 1190Z" fill="#05370A"/>
<path d="M665 1048L729 668L505 938L665 1048Z" fill="#05370A"/>
<path d="M433 1190L505 938L365 1016L433 1190Z" fill="#21862B"/>
<path d="M365 1016L505 938H231L365 1016Z" fill="#5ADD67"/>
<path d="M231 938L297 1190L365 1016L231 938Z" fill="#1AA829"/>
<path d="M365 470L231 938H505L365 470Z" fill="#64F372"/>
<path d="M505 938L435 470H365L505 938Z" fill="#2BB238"/>
<path d="M505 938L729 668L435 470L505 938Z" fill="#025C0B"/>
<path d="M729 668L365 2L435 470L729 668Z" fill="#066D10"/>
<path d="M435 470L365 2V470H435Z" fill="#078C14"/>
<path d="M365 2L1 668M365 2L729 668M365 2L298 470M365 2L435 470M365 2V470M1 668L65 1048M1 668L231 938M1 668L298 470M65 1048L297 1190M65 1048L231 938M297 1190H433M297 1190L231 938M297 1190L365 1016M729 668L665 1048M729 668L505 938M729 668L435 470M665 1048L433 1190M665 1048L505 938M433 1190L505 938M433 1190L365 1016M231 938L365 1016M231 938L298 470M231 938L365 470M231 938H505M505 938L365 1016M505 938L435 470M505 938L365 470M298 470H365M435 470H365" stroke="black"/>
</svg>
